HIERARCHY
ROOT hip
{
	OFFSET 0.000000 0.000000 0.000000 
	CHANNELS 6 Xposition Yposition Zposition Xrotation Zrotation Yrotation
	JOINT abdomen
	{
		OFFSET 0.000000 3.402643 0.000000 
		CHANNELS 3 Xrotation Zrotation Yrotation
		JOINT chest
		{
			OFFSET 0.000000 8.438565 -0.680529 
			CHANNELS 3 Xrotation Zrotation Yrotation
			JOINT neck
			{
				OFFSET 0.000000 10.207942 -0.272212 
				CHANNELS 3 Xrotation Zrotation Yrotation
				JOINT head
				{
					OFFSET 0.000000 3.130431 0.000000 
					CHANNELS 3 Xrotation Zrotation Yrotation
					End Site
					{
						OFFSET 0.000000 3.130435 0.000000 
					}
				}
			}
			JOINT lCollar
			{
				OFFSET 3.470700 6.669187 -0.816635 
				CHANNELS 3 Yrotation Zrotation Xrotation
				JOINT lShldr
				{
					OFFSET 3.198488 0.000000 0.000000 
					CHANNELS 3 Zrotation Yrotation Xrotation
					JOINT lForeArm
					{
						OFFSET 10.139888 0.000000 0.000000 
						CHANNELS 3 Yrotation Zrotation Xrotation
						JOINT lHand
						{
							OFFSET 8.370511 0.000000 0.000000 
							CHANNELS 3 Zrotation Yrotation Xrotation
							End Site
							{
								OFFSET 4.083176 0.000000 0.000000 
							}
						}
					}
				}
			}
			JOINT rCollar
			{
				OFFSET -3.470700 6.669187 -0.816635 
				CHANNELS 3 Yrotation Zrotation Xrotation
				JOINT rShldr
				{
					OFFSET -3.198488 0.000000 0.000000 
					CHANNELS 3 Zrotation Yrotation Xrotation
					JOINT rForeArm
					{
						OFFSET -10.139888 0.000000 0.000000 
						CHANNELS 3 Yrotation Zrotation Xrotation
						JOINT rHand
						{
							OFFSET -8.370511 0.000000 0.000000 
							CHANNELS 3 Zrotation Yrotation Xrotation
							End Site
							{
								OFFSET -4.083176 0.000000 0.000000 
							}
						}
					}
				}
			}
		}
	}
	JOINT lThigh
	{
		OFFSET 5.308129 -1.633274 1.361059 
		CHANNELS 3 Xrotation Zrotation Yrotation
		JOINT lShin
		{
			OFFSET -2.041588 -20.007561 0.000000 
			CHANNELS 3 Xrotation Zrotation Yrotation
			JOINT lFoot
			{
				OFFSET 0.000000 -19.190928 -1.224953 
				CHANNELS 3 Xrotation Yrotation Zrotation
				End Site
				{
					OFFSET 0.000000 -2.449906 4.627600 
				}
			}
		}
	}
	JOINT rThigh
	{
		OFFSET -5.308129 -1.633274 1.361059 
		CHANNELS 3 Xrotation Zrotation Yrotation
		JOINT rShin
		{
			OFFSET 2.041588 -20.007561 0.000000 
			CHANNELS 3 Xrotation Zrotation Yrotation
			JOINT rFoot
			{
				OFFSET 0.000000 -19.190928 -1.224953 
				CHANNELS 3 Xrotation Yrotation Zrotation
				End Site
				{
					OFFSET 0.000000 -2.449906 4.627600 
				}
			}
		}
	}
}
MOTION
Frames: 9
Frame Time: 0.033333
-5.238983 42.098400 -5.519223 -3.964120 -2.502030 3.720380 0.000000 0.000000 0.000000 18.417500 -9.831030 -11.903600 6.829280 19.404800 3.176780 -9.604670 -7.081120 12.048800 -9.517943 23.226423 14.210189 -61.480400 -39.677101 40.445900 -81.565300 -9.255440 29.031500 -3.363860 -21.393000 -1.574940 -15.767886 20.793381 7.440752 47.551399 -13.357600 34.273602 107.473000 -13.814600 70.214104 5.100240 8.253970 -35.752300 -13.736245 14.848371 6.036961 20.662397 1.258889 -16.613287 -3.656011 2.373491 -7.408695 -15.797234 -12.975408 -2.931590 31.395452 -6.288266 29.462872 -0.818537 0.559301 9.167270 
-6.289918 41.675137 -5.540611 -3.565860 -3.572890 4.763050 0.000000 0.000000 0.000000 18.417500 -11.131900 -12.467300 8.305080 20.906500 4.263620 -9.817930 -8.218260 12.605900 -10.485474 26.120539 15.524367 -62.031300 -42.187199 38.182800 -81.328201 -9.099910 30.204700 -0.838208 -21.732201 -1.332660 -16.682676 23.499908 7.838650 50.256901 -11.340800 33.089100 107.556999 -13.672500 69.773201 6.012910 6.370950 -35.917599 -16.116753 16.477306 3.700897 22.809530 2.972485 -17.965521 -4.992509 4.019102 -8.408900 -11.977982 -12.104585 -2.498168 26.683500 -4.136198 27.753311 -5.797368 -0.649809 9.191095 
-7.214553 41.085526 -5.612340 -4.259810 -4.271530 4.648200 0.000000 0.000000 0.000000 18.417500 -11.979700 -11.675600 9.799820 20.326200 6.097890 -10.010600 -9.275170 12.881200 -9.888830 26.540394 16.238441 -62.838799 -43.819401 34.749401 -78.829903 -9.077610 32.374599 1.848100 -22.217699 -1.241100 -15.385993 24.208462 8.242607 52.907902 -6.494120 30.592501 104.566002 -13.371600 68.101898 6.694610 4.757810 -36.275101 -18.043722 17.516380 1.795946 27.125881 5.246126 -18.792566 -7.524617 5.872121 -9.466947 -9.830001 -10.805593 -3.301431 25.946905 -3.251797 25.414497 -11.348827 -1.672477 8.816817 
-8.117504 40.919380 -5.782857 -5.716990 -4.764460 4.669030 0.000000 0.000000 0.000000 18.417500 -12.152600 -9.793200 10.598500 18.594200 8.048190 -10.156300 -10.204000 12.681700 -8.628287 25.032269 16.767170 -63.891701 -44.670101 31.124001 -73.461800 -9.039690 34.998299 4.665280 -22.545700 -1.189410 -12.261189 24.497379 8.789639 54.391102 -0.031712 26.971300 98.464401 -12.746200 65.868698 6.678140 3.107480 -36.423599 -19.555676 18.638037 0.608532 31.838036 7.424648 -20.067049 -10.052963 7.323038 -10.447088 -9.381757 -8.961397 -5.483237 28.962755 -3.905056 23.829842 -16.636419 -2.523265 7.874809 
-9.144062 40.799259 -6.049201 -7.542200 -4.787880 6.549310 0.000000 0.000000 0.000000 18.417500 -11.853200 -7.459550 10.309800 16.630899 9.454380 -10.195200 -10.694000 11.849500 -7.664632 22.270264 17.408642 -64.641197 -45.398201 28.082100 -65.588799 -8.671450 36.987999 8.000330 -21.571899 -1.448850 -8.495954 24.681135 9.317180 54.715599 7.109300 23.384300 89.691498 -11.835100 63.572800 6.403630 0.686078 -36.228298 -20.973169 19.762543 -0.060682 34.911674 9.053209 -22.499252 -11.101429 8.026091 -11.579767 -9.790372 -6.948942 -8.191461 34.184753 -5.616224 22.351852 -20.967686 -3.611509 6.605442 
-10.392376 40.685349 -6.372645 -9.101100 -3.875230 11.236600 0.000000 0.000000 0.000000 18.417500 -11.466200 -5.363060 8.761520 14.767700 9.848940 -10.185900 -10.399800 10.444900 -7.384088 18.702259 17.750221 -64.356697 -46.681599 25.627300 -56.504799 -7.615310 37.190601 11.399600 -17.994301 -2.433020 -4.879430 22.660322 9.410601 54.664200 14.665800 23.112400 79.209900 -13.110700 61.448002 6.782790 -2.514970 -36.083500 -22.983784 20.240393 -0.353735 35.369152 9.851981 -25.507580 -9.117746 7.680333 -13.040734 -9.928363 -5.261115 -10.522582 38.997776 -6.881271 19.682695 -23.753870 -5.210777 5.130508 
-11.854828 40.892822 -6.712244 -9.492520 -2.194520 18.258101 0.000000 0.000000 0.000000 18.417500 -10.982600 -3.757460 5.920450 12.515500 9.212230 -10.418700 -9.289260 8.708820 -7.391885 14.706381 17.050058 -62.488300 -49.013802 22.762100 -47.865898 -5.741780 35.371101 13.808500 -12.414300 -3.952900 -1.350500 18.686577 9.347864 54.418900 22.816000 27.424801 68.500801 -18.669001 57.704102 7.953450 -5.394230 -36.289799 -26.115431 19.564785 0.227025 33.484684 9.263662 -26.760540 -2.777865 5.787220 -14.362875 -9.577853 -4.109756 -12.262216 41.052139 -6.366100 15.822556 -24.607573 -6.922897 3.405303 
-13.414419 41.505753 -7.047742 -8.278640 -0.797297 25.906200 0.000000 0.000000 0.000000 18.417500 -10.017200 -2.563540 1.863000 9.005490 8.104970 -11.164900 -7.702500 6.885420 -7.014726 10.595748 15.045567 -58.675400 -52.698200 17.489401 -40.856602 -2.993290 32.624802 14.845200 -7.292680 -5.364410 2.188179 12.208156 10.052722 53.067402 32.400799 29.082100 59.591702 -22.937099 52.240700 8.457540 -7.437480 -36.352402 -30.038406 18.017292 2.476487 30.540651 6.707003 -23.240128 7.802069 2.043966 -13.567767 -9.303221 -3.318297 -13.552461 39.155663 -4.240341 12.063536 -22.884640 -8.092912 1.979487 
-14.900205 42.326973 -7.376050 -6.001550 -0.728237 32.238201 0.000000 0.000000 0.000000 18.417500 -8.193290 -1.563410 -3.108150 3.672400 7.474550 -12.464200 -6.048430 5.245890 -6.073841 6.457994 12.198306 -51.422501 -57.729000 7.201430 -36.045300 0.612023 29.892799 14.966600 -3.501490 -6.226690 5.624950 3.362674 12.393609 48.394001 43.862598 23.640200 53.503601 -25.059299 48.317501 8.055430 -8.846890 -35.705700 -33.688705 16.385094 6.270303 27.879700 2.762445 -14.502184 19.570435 -1.805237 -8.463526 -9.158608 -2.557989 -14.667778 33.484715 -1.683741 9.898615 -18.972828 -8.207767 1.062214 
